# xmcd
#
# Track frame offsets:
#	150
#	12741
#	24783
#	41892
#	54179
#	69131
#	83423
#	94526
#	113565
#	128844
#	142910
#	156494
#
# Disc length: 2284 seconds
#
# Revision: 1
# Processed by: cddbd v1.5.2PL0 Copyright (c) Steve Scherf et al.
# Submitted via: audiograbber 1.83.01
#
DISCID=8908ea0c
DTITLE=Trevor Dawe - By Request
DYEAR=1900
DGENRE=Instrumental
TTITLE0=The Bells Of St Marys
TTITLE1=Only Wanna Be With You
TTITLE2=Believe Me If All Those Endearing Charms
TTITLE3=A World Of Our Own
TTITLE4=Love Changes Everything
TTITLE5=Alley Cat
TTITLE6=Old Fashioned Love
TTITLE7=Lace Covered Windows
TTITLE8=Any Dream Will Do
TTITLE9=The End Of The World
TTITLE10=The Young Ones
TTITLE11=And I Love her
EXTD=
EXTT0=
EXTT1=
EXTT2=
EXTT3=
EXTT4=
EXTT5=
EXTT6=
EXTT7=
EXTT8=
EXTT9=
EXTT10=
EXTT11=
PLAYORDER=
